<svg width="800" height="600" xmlns="http://www.w3.org/2000/svg">

 <g>
  <title>Слой 1</title>
  <path id="svg_1" d="m335.98696,470.15502c-3.12758,-8.16243 -59.69783,2.04208 -30.09493,-8.52988c11.46784,-2.28039 35.01537,0.57896 11.60371,-5.58673c26.65991,7.73449 38.4753,-19.36961 40.19639,-37.64249c-24.81442,-6.64858 -29.11186,-31.48102 -55.26149,-38.16861c-19.92395,-13.43131 -49.13278,-13.02059 -61.77887,-33.7295c-12.0064,-18.44012 -5.22559,-40.88611 -3.23803,-60.80556c4.73135,-21.02884 14.33683,-42.31286 12.43728,-63.68117c-19.3649,9.58721 -26.44491,-11.84513 -26.88653,-18.5396c-14.25412,3.13452 -23.28376,3.27343 -7.78321,-7.6301c6.9268,-8.26021 10.36464,-26.30241 21.43046,-23.5942c2.91946,-10.92145 10.6677,4.96555 19.23454,-4.68417c5.24951,3.40834 16.35187,7.20782 4.0453,13.21731c22.22147,9.64183 40.21453,24.31106 49.47151,43.05701c9.27644,19.052 27.75776,39.64105 57.60246,34.48618c27.02286,3.98974 58.68327,-9.95434 57.45297,-33.35163c0.52382,-16.57704 19.49773,-55.29142 45.06955,-35.61472c19.16403,6.31971 41.21541,21.97348 36.69433,39.73812c-2.61831,18.31654 -0.59534,36.79145 1.88994,55.25719c-16.05038,10.23093 -13.16879,28.00258 -24.37792,41.38421c9.29901,18.84198 0.34333,39.1974 -14.87815,54.49917c-15.22594,14.10397 -37.4803,26.62991 -62.14574,24.79787c-9.42336,13.48967 11.12673,25.3586 18.37688,26.1144c-18.89271,-5.20765 -16.23172,4.77806 -10.00268,15.44853c5.83609,19.97734 -12.48503,-17.7973 -24.31904,0.27656c-9.17578,7.80297 -45.86176,10.44429 -16.16081,1.09171c25.34735,-8.08606 -28.4632,-13.14209 -16.51882,5.07956c3.95301,7.60233 26.87327,10.94978 2.74725,8.05312c-10.65265,-4.81501 -16.35062,12.28216 -24.80636,9.0574l0.00001,0.00001zm50.84801,-35.13747c9.27447,-9.70651 11.94345,-37.78879 -8.11464,-17.31493c-15.85417,11.04919 -21.5862,30.06631 8.11464,17.31493z" stroke="#000" fill="#7AD6CA"/>
  <text xml:space="preserve" text-anchor="start" font-family="Noto Sans JP" font-size="24" id="svg_3" y="325.80001" x="319.6" stroke-width="0" stroke="#000" fill="#000000">NIK POG</text>
 </g>
</svg>